<svg xmlns="http://www.w3.org/2000/svg" xmlns:xlink="http://www.w3.org/1999/xlink" version="1.1" x="0px" y="0px" viewBox="0 0 100 125" enable-background="new 0 0 100 100" xml:space="preserve">
  <path fill="#FFFFFF" d="M50,79.175c-1.619,0-3.142-0.714-4.179-1.958L6.261,29.746c-0.93-1.116-1.37-2.528-1.239-3.975  c0.132-1.447,0.819-2.756,1.936-3.686c0.975-0.813,2.211-1.26,3.48-1.26c1.621,0,3.144,0.713,4.181,1.957L50,65.24l35.381-42.458  c1.036-1.243,2.559-1.957,4.18-1.957c1.269,0,2.504,0.448,3.481,1.26c1.116,0.931,1.804,2.24,1.936,3.687  c0.131,1.447-0.308,2.859-1.238,3.975l-39.56,47.471C53.142,78.462,51.619,79.175,50,79.175z M10.438,23.792  c-0.584,0-1.131,0.198-1.581,0.573c-0.507,0.423-0.819,1.018-0.879,1.676c-0.06,0.657,0.14,1.299,0.563,1.806l39.56,47.472  c0.943,1.129,2.856,1.132,3.799-0.001l39.56-47.471c0.423-0.507,0.623-1.148,0.563-1.806c-0.06-0.658-0.373-1.253-0.88-1.676  c-1.019-0.848-2.638-0.697-3.483,0.316L50,69.874L12.339,24.682C11.868,24.116,11.176,23.792,10.438,23.792z"/>
</svg>
