<svg xmlns="http://www.w3.org/2000/svg" xmlns:xlink="http://www.w3.org/1999/xlink" version="1.1" x="0px" y="0px" viewBox="0 0 57.906 36.66875" enable-background="new 0 0 57.906 29.335" xml:space="preserve"><g><path fill="#FFFFFF" d="M57.907,4c0-1.024-0.391-2.047-1.172-2.829c-1.562-1.562-4.095-1.562-5.656,0L32.303,19.947   c-0.896,0.895-2.085,1.388-3.35,1.388c-1.266,0-2.455-0.493-3.349-1.387L6.828,1.172c-1.562-1.562-4.095-1.562-5.657,0   c-1.562,1.563-1.562,4.095,0,5.657l18.776,18.776c2.404,2.405,5.604,3.73,9.006,3.73c3.401,0,6.601-1.325,9.006-3.73L56.735,6.829   C57.516,6.047,57.907,5.024,57.907,4z"/></g>
</svg>
